<svg xmlns="http://www.w3.org/2000/svg" viewBox="0 0 400 600" width="400" height="600">
  <g id="mandarin-collar">
    <!-- Main body -->
    <path d="M80,610 L80,520 C110,510 110,510 110,510 C120,590 200,592 200,592 C200,592 280,590 290,510 C290,510 290,510 320,520 L320,610 Z" fill="$[primary]" stroke="#000" stroke-width="5" stroke-linejoin="round"/>
    <!-- Mandarin collar band -->
    <path d="M148,506 C162,498 180,495 200,495 C220,495 238,498 252,506 L252,518 C238,512 220,509 200,509 C180,509 162,512 148,518 Z" fill="$[primary]" stroke="#000" stroke-width="2.5" stroke-linejoin="round"/>
    <!-- Collar center gap -->
    <line x1="200" y1="495" x2="200" y2="518" stroke="#000" stroke-width="1.5" opacity="0.4"/>
    <!-- Collar button -->
    <circle cx="200" cy="521" r="3" fill="#ddd" stroke="#888" stroke-width="1"/>
  </g>
</svg>
