<svg xmlns="http://www.w3.org/2000/svg" viewBox="0 0 400 600" width="400" height="600">
  <g id="henley">
    <!-- Main body -->
    <path d="M80,610 L80,520 C110,510 110,510 110,510 C120,590 200,592 200,592 C200,592 280,590 290,510 C290,510 290,510 320,520 L320,610 Z" fill="$[primary]" stroke="#000" stroke-width="5" stroke-linejoin="round"/>
    <!-- Neckline seam -->
    <path d="M142,504 C158,497 178,494 200,494 C222,494 242,497 258,504" fill="none" stroke="#000" stroke-width="2.5" opacity="0.5"/>
    <!-- Henley placket -->
    <rect x="194" y="504" width="12" height="42" rx="3" fill="$[primary]" stroke="#000" stroke-width="2"/>
    <!-- Placket buttons -->
    <circle cx="200" cy="516" r="3.5" fill="#ddd" stroke="#888" stroke-width="1"/>
    <circle cx="200" cy="528" r="3.5" fill="#ddd" stroke="#888" stroke-width="1"/>
    <circle cx="200" cy="540" r="3.5" fill="#ddd" stroke="#888" stroke-width="1"/>
  </g>
</svg>
