<svg xmlns="http://www.w3.org/2000/svg" viewBox="0 0 400 600" width="400" height="600">
  <g id="mandarin-collar">
    <!-- Shirt body -->
    <path d="M80,610 L80,520 C90,515 100,512 110,510 Q155,528 200,530 Q245,528 290,510 C300,512 310,515 320,520 L320,610 Z" fill="$[primary]" stroke="#000" stroke-width="5" stroke-linejoin="round"/>
    <!-- Mandarin collar band -->
    <path d="M152,510 C166,501 182,497 200,497 C218,497 234,501 248,510 L248,524 C234,517 218,513 200,513 C182,513 166,517 152,524 Z" fill="$[primary]" stroke="#000" stroke-width="2.5" stroke-linejoin="round"/>
    <!-- Collar gap + button -->
    <line x1="200" y1="497" x2="200" y2="524" stroke="#000" stroke-width="1.5" opacity="0.35"/>
    <circle cx="200" cy="527" r="3" fill="#ddd" stroke="#888" stroke-width="1"/>
  </g>
</svg>
